#
# object g_grenade
#

o g_grenade
v -4.944049 9.101239 -0.056977
v -1.576256 6.834228 -0.089258
v -5.467877 8.649529 -0.850464
v -5.070923 2.938259 -0.190956
v -7.692076 5.997454 -0.123481
v -1.254169 2.575324 1.938121
v 0.228337 4.207987 -0.156733
v -3.278438 5.052088 -4.379691
v -3.432084 4.805473 4.099477
v -5.545390 8.591820 0.670002
v -2.583036 1.189278 -0.223236
v -1.100525 2.821941 -2.318088
v -5.545390 8.591820 0.670002
v -4.944049 9.101239 -0.056977
v -3.278438 5.052088 -4.379691
v -5.467877 8.649529 -0.850464
v -3.432084 4.805473 4.099477
v -1.254169 2.575324 1.938121
v -2.583036 1.189278 -0.223236
v -1.100525 2.821941 -2.318088
# 20 vertices

# 0 UVs

vn 0.072100 0.996300 0.047000
vn 0.685100 0.727700 0.031700
vn -0.356500 0.796700 -0.488100
vn -0.626800 -0.778400 -0.033400
vn -0.999700 -0.023900 -0.008200
vn 0.484600 -0.615700 0.621300
vn 0.998800 0.046900 0.015400
vn 0.021900 0.015400 -0.999600
vn -0.004000 -0.034000 0.999400
vn -0.386500 0.776100 0.498300
vn -0.068100 -0.996800 -0.042400
vn 0.520400 -0.557400 -0.646800
vn -0.386500 0.776100 0.498300
vn 0.072100 0.996300 0.047000
vn 0.021900 0.015400 -0.999600
vn -0.356500 0.796700 -0.488100
vn -0.004000 -0.034000 0.999400
vn 0.484600 -0.615700 0.621300
vn -0.068100 -0.996800 -0.042400
vn 0.520400 -0.557400 -0.646800
# 20 Normals

g g_grenade
f 10//10 9//9 2//2
f 5//5 13//13 1//1
f 8//8 2//2 7//7
f 3//3 14//14 2//2
f 4//4 15//15 12//12
f 5//5 16//16 15//15
f 4//4 11//11 6//6
f 5//5 4//4 17//17
f 9//9 18//18 7//7
f 7//7 18//18 19//19
f 2//2 14//14 10//10
f 1//1 16//16 5//5
f 7//7 20//20 8//8
f 2//2 8//8 3//3
f 12//12 11//11 4//4
f 15//15 4//4 5//5
f 6//6 17//17 4//4
f 17//17 13//13 5//5
f 7//7 2//2 9//9
f 19//19 20//20 7//7
# 20 Faces

